<svg width="250" height="96" viewBox="0 0 250 96" fill="none" xmlns="http://www.w3.org/2000/svg">
<g opacity="0.7">
<path d="M108.212 71.6405V65.5544H105.916V64.251H111.885V65.5544H109.588V71.6405H108.212Z" fill="white"/>
<path d="M113.153 71.6405V64.251H116.228C116.299 64.251 116.393 64.2544 116.512 64.2613C116.633 64.2647 116.741 64.2749 116.835 64.292C117.27 64.3605 117.626 64.5059 117.903 64.7282C118.183 64.9506 118.388 65.2311 118.52 65.5698C118.651 65.9051 118.717 66.2797 118.717 66.6936C118.717 67.3128 118.565 67.8431 118.262 68.2844C117.958 68.7223 117.483 68.9926 116.835 69.0952L116.228 69.1363H114.529V71.6405H113.153ZM117.26 71.6405L115.824 68.6334L117.24 68.3563L118.818 71.6405H117.26ZM114.529 67.8328H116.168C116.238 67.8328 116.316 67.8294 116.4 67.8226C116.485 67.8157 116.562 67.8021 116.633 67.7815C116.818 67.7302 116.962 67.6447 117.063 67.5249C117.164 67.4018 117.233 67.2667 117.27 67.1196C117.311 66.969 117.331 66.8271 117.331 66.6936C117.331 66.5602 117.311 66.4199 117.27 66.2728C117.233 66.1223 117.164 65.9872 117.063 65.8674C116.962 65.7443 116.818 65.6571 116.633 65.6057C116.562 65.5852 116.485 65.5715 116.4 65.5647C116.316 65.5578 116.238 65.5544 116.168 65.5544H114.529V67.8328Z" fill="white"/>
<path d="M119.88 71.6405L122.105 64.251H124.159L126.385 71.6405H124.969L122.986 65.1234H123.249L121.296 71.6405H119.88ZM121.215 70.101V68.7976H125.06V70.101H121.215Z" fill="white"/>
<path d="M127.747 71.6405V64.251H129.143L132.31 69.1773V64.251H133.706V71.6405H132.31L129.143 66.7142V71.6405H127.747Z" fill="white"/>
<path d="M138.607 71.7944C138.149 71.7944 137.712 71.7123 137.297 71.5481C136.883 71.3805 136.515 71.1342 136.195 70.8092C135.878 70.4842 135.626 70.0822 135.441 69.6032C135.259 69.1243 135.168 68.5718 135.168 67.9457C135.168 67.1281 135.321 66.4336 135.628 65.8623C135.938 65.2876 136.353 64.8497 136.872 64.5486C137.395 64.2476 137.973 64.097 138.607 64.097C139.545 64.097 140.282 64.3177 140.818 64.759C141.354 65.2003 141.713 65.8247 141.895 66.6321L140.489 66.8373C140.358 66.4063 140.142 66.0624 139.842 65.8059C139.545 65.5459 139.164 65.4142 138.699 65.4107C138.237 65.4039 137.852 65.5048 137.545 65.7135C137.238 65.9222 137.007 66.2181 136.852 66.6013C136.7 66.9844 136.625 67.4326 136.625 67.9457C136.625 68.4589 136.7 68.9036 136.852 69.28C137.007 69.6563 137.238 69.9488 137.545 70.1575C137.852 70.3661 138.237 70.4739 138.699 70.4807C139.012 70.4876 139.295 70.4328 139.548 70.3165C139.805 70.2002 140.02 70.0172 140.196 69.7675C140.371 69.5177 140.496 69.1978 140.57 68.8078H139.417V67.7302H142.037C142.044 67.7747 142.049 67.8534 142.052 67.9663C142.056 68.0792 142.057 68.1442 142.057 68.1613C142.057 68.8694 141.916 69.4972 141.632 70.0446C141.349 70.5919 140.95 71.0213 140.434 71.3326C139.918 71.6405 139.309 71.7944 138.607 71.7944Z" fill="white"/>
<path d="M147.697 71.6405V65.5544H145.4V64.251H151.369V65.5544H149.073V71.6405H147.697Z" fill="white"/>
<path d="M152.637 71.6405V64.251H154.013V67.2889H157.271V64.251H158.647V71.6405H157.271V68.5923H154.013V71.6405H152.637Z" fill="white"/>
<path d="M161.605 63.4813L163.061 61.7878H164.195L165.651 63.4813H164.387L163.628 62.5576L162.869 63.4813H161.605ZM163.648 71.7944C162.92 71.7944 162.291 71.6336 161.761 71.3121C161.235 70.9905 160.829 70.5406 160.542 69.9625C160.259 69.3843 160.117 68.7121 160.117 67.9457C160.117 67.1794 160.259 66.5072 160.542 65.929C160.829 65.3509 161.235 64.901 161.761 64.5794C162.291 64.2578 162.92 64.097 163.648 64.097C164.377 64.097 165.004 64.2578 165.53 64.5794C166.059 64.901 166.466 65.3509 166.749 65.929C167.036 66.5072 167.179 67.1794 167.179 67.9457C167.179 68.7121 167.036 69.3843 166.749 69.9625C166.466 70.5406 166.059 70.9905 165.53 71.3121C165.004 71.6336 164.377 71.7944 163.648 71.7944ZM163.648 70.4807C164.11 70.4876 164.495 70.3867 164.802 70.178C165.108 69.9693 165.338 69.6734 165.49 69.2902C165.645 68.9071 165.722 68.4589 165.722 67.9457C165.722 67.4326 165.645 66.9878 165.49 66.6115C165.338 66.2352 165.108 65.9427 164.802 65.734C164.495 65.5253 164.11 65.4176 163.648 65.4107C163.186 65.4039 162.802 65.5048 162.495 65.7135C162.188 65.9222 161.957 66.2181 161.802 66.6013C161.65 66.9844 161.574 67.4326 161.574 67.9457C161.574 68.4589 161.65 68.9036 161.802 69.28C161.957 69.6563 162.188 69.9488 162.495 70.1575C162.802 70.3661 163.186 70.4739 163.648 70.4807Z" fill="white"/>
<path d="M168.644 71.6405V64.251H170.04L173.207 69.1773V64.251H174.603V71.6405H173.207L170.04 66.7142V71.6405H168.644Z" fill="white"/>
<path d="M179.505 71.7944C179.046 71.7944 178.609 71.7123 178.195 71.5481C177.78 71.3805 177.412 71.1342 177.092 70.8092C176.775 70.4842 176.524 70.0822 176.338 69.6032C176.156 69.1243 176.065 68.5718 176.065 67.9457C176.065 67.1281 176.219 66.4336 176.525 65.8623C176.836 65.2876 177.25 64.8497 177.77 64.5486C178.292 64.2476 178.871 64.097 179.505 64.097C180.442 64.097 181.179 64.3177 181.715 64.759C182.252 65.2003 182.611 65.8247 182.793 66.6321L181.387 66.8373C181.255 66.4063 181.039 66.0624 180.739 65.8059C180.442 65.5459 180.061 65.4142 179.596 65.4107C179.134 65.4039 178.749 65.5048 178.443 65.7135C178.136 65.9222 177.905 66.2181 177.75 66.6013C177.598 66.9844 177.522 67.4326 177.522 67.9457C177.522 68.4589 177.598 68.9036 177.75 69.28C177.905 69.6563 178.136 69.9488 178.443 70.1575C178.749 70.3661 179.134 70.4739 179.596 70.4807C179.91 70.4876 180.193 70.4328 180.446 70.3165C180.702 70.2002 180.918 70.0172 181.093 69.7675C181.269 69.5177 181.393 69.1978 181.468 68.8078H180.314V67.7302H182.934C182.941 67.7747 182.946 67.8534 182.95 67.9663C182.953 68.0792 182.955 68.1442 182.955 68.1613C182.955 68.8694 182.813 69.4972 182.53 70.0446C182.247 70.5919 181.847 71.0213 181.331 71.3326C180.815 71.6405 180.206 71.7944 179.505 71.7944Z" fill="white"/>
<path d="M188.594 71.6405V65.5544H186.297V64.251H192.266V65.5544H189.97V71.6405H188.594Z" fill="white"/>
<path d="M193.636 71.6405V64.251H195.012V71.6405H193.636Z" fill="white"/>
<path d="M196.983 71.6405V64.251H198.38L201.546 69.1773V64.251H202.942V71.6405H201.546L198.38 66.7142V71.6405H196.983Z" fill="white"/>
<path d="M206.683 68.4794V67.4018H210.173V68.4794H206.683ZM207.33 71.6405V64.251H209.687C209.745 64.251 209.863 64.2527 210.041 64.2561C210.22 64.2595 210.392 64.2715 210.557 64.292C211.144 64.3639 211.642 64.5709 212.05 64.913C212.458 65.2551 212.768 65.6896 212.98 66.2164C213.193 66.7432 213.299 67.3197 213.299 67.9457C213.299 68.5718 213.193 69.1482 212.98 69.6751C212.768 70.2019 212.458 70.6364 212.05 70.9785C211.642 71.3206 211.144 71.5276 210.557 71.5994C210.392 71.62 210.22 71.6319 210.041 71.6354C209.863 71.6388 209.745 71.6405 209.687 71.6405H207.33ZM208.726 70.3268H209.687C209.778 70.3268 209.902 70.3251 210.057 70.3217C210.212 70.3148 210.352 70.2994 210.477 70.2755C210.794 70.2105 211.051 70.06 211.25 69.8239C211.453 69.5878 211.601 69.3039 211.696 68.9721C211.793 68.6402 211.842 68.2981 211.842 67.9457C211.842 67.5763 211.792 67.2256 211.691 66.8938C211.593 66.5619 211.443 66.2814 211.24 66.0522C211.038 65.823 210.783 65.6776 210.477 65.616C210.352 65.5886 210.212 65.5732 210.057 65.5698C209.902 65.5664 209.778 65.5647 209.687 65.5647H208.726V70.3268Z" fill="white"/>
<path d="M215.068 71.6405V64.251H216.444V71.6405H215.068Z" fill="white"/>
<path d="M220.105 73.6418V72.4102H221.481V73.6418H220.105ZM218.699 63.4813L220.156 61.7878H221.289L222.746 63.4813H221.481L220.723 62.5576L219.964 63.4813H218.699ZM218.416 71.6405V64.251H223.171V65.5544H219.792V67.1349H222.564V68.4384H219.792V70.3371H223.171V71.6405H218.416Z" fill="white"/>
<path d="M224.839 71.6405V64.251H226.235L229.401 69.1773V64.251H230.798V71.6405H229.401L226.235 66.7142V71.6405H224.839Z" fill="white"/>
<path d="M236.834 71.6405V65.5544H234.538V64.251H240.507V65.5544H238.21V71.6405H236.834Z" fill="white"/>
<path d="M247.987 63.3324L249.009 63.3273C249.059 63.731 249.034 64.0543 248.933 64.2972C248.835 64.5367 248.678 64.7163 248.462 64.836C248.243 64.9592 247.995 65.0224 247.719 65.0259C247.446 65.0259 247.201 65.0139 246.985 64.9899V64.251C247.059 64.251 247.129 64.251 247.193 64.251C247.26 64.2476 247.326 64.2407 247.39 64.2305C247.656 64.186 247.822 64.0765 247.886 63.902C247.953 63.7242 247.987 63.5343 247.987 63.3324ZM244.168 61.9623L243.829 61.2798C244.038 61.0985 244.279 60.9856 244.552 60.9411C244.829 60.8932 245.088 60.9274 245.331 61.0438C245.574 61.1566 245.751 61.3653 245.862 61.6698C245.953 61.9195 245.979 62.1453 245.938 62.3472C245.901 62.549 245.818 62.7252 245.69 62.8757C245.566 63.0228 245.417 63.1392 245.245 63.2247C245.073 63.3068 244.901 63.3547 244.729 63.3684L244.517 62.809C244.699 62.7611 244.854 62.6722 244.982 62.5422C245.114 62.4088 245.134 62.2411 245.043 62.0393C244.985 61.9093 244.905 61.8323 244.8 61.8084C244.699 61.781 244.591 61.7844 244.476 61.8186C244.362 61.8528 244.259 61.9007 244.168 61.9623ZM244.739 71.7944C244.153 71.7944 243.637 71.6747 243.191 71.4352C242.746 71.1923 242.399 70.8519 242.149 70.414C241.9 69.9761 241.775 69.4613 241.775 68.8694V64.2613L243.171 64.251V68.8592C243.171 69.1021 243.212 69.3227 243.293 69.5211C243.374 69.7196 243.485 69.8906 243.626 70.0343C243.771 70.178 243.938 70.2892 244.127 70.3678C244.319 70.4431 244.523 70.4807 244.739 70.4807C244.962 70.4807 245.168 70.4414 245.356 70.3627C245.549 70.284 245.716 70.1728 245.857 70.0292C245.999 69.8855 246.108 69.7144 246.186 69.516C246.267 69.3176 246.307 69.0986 246.307 68.8592V64.251H247.704V68.8694C247.704 69.4613 247.579 69.9761 247.329 70.414C247.08 70.8519 246.732 71.1923 246.287 71.4352C245.842 71.6747 245.326 71.7944 244.739 71.7944Z" fill="white"/>
</g>
<path d="M7.4278 29.1162C3.35806 35.7605 1.12921 43.3727 0.970969 51.1683C0.812733 58.9639 2.73084 66.6607 6.52759 73.4655C10.3243 80.2703 15.8624 85.9369 22.5709 89.8812C29.2794 93.8255 36.9156 95.9048 44.6925 95.9048C52.4695 95.9048 60.1057 93.8255 66.8142 89.8812C73.5227 85.9369 79.0607 80.2703 82.8575 73.4655C86.6542 66.6607 88.5723 58.9639 88.4141 51.1683C88.2559 43.3727 86.027 35.7605 81.9573 29.1162H7.4278Z" fill="#F36E22"/>
<path d="M67.7806 29.1162H23.195C18.162 33.6737 14.617 39.6664 13.0286 46.3022C11.4401 52.9381 11.8831 59.9045 14.299 66.2806C16.7148 72.6567 20.9897 78.1423 26.5586 82.0121C32.1274 85.8819 38.728 87.9538 45.4878 87.9538C52.2476 87.9538 58.8482 85.8819 64.417 82.0121C69.9859 78.1423 74.2608 72.6567 76.6766 66.2806C79.0925 59.9045 79.5355 52.9381 77.947 46.3022C76.3586 39.6664 72.8136 33.6737 67.7806 29.1162ZM33.4179 72.6703H24.9444V43.1163L29.7395 33.9196H33.3945L33.4179 72.6703ZM70.4125 65.6506H65.4923V72.6703H57.011V65.6506H37.5414V59.4511L50.6305 33.9591H60.0021L47.6628 57.6843H57.0344V47.7935L59.7991 42.8245H65.4923V57.6843H70.4125V65.6506Z" fill="#C32022"/>
<path d="M45.482 82.3164C37.0232 82.3144 28.8805 79.1194 22.6989 73.3768C16.5173 67.6341 12.7577 59.7721 12.1795 51.3789C12.1248 52.1562 12.0935 52.8869 12.0935 53.6565C12.2276 62.3766 15.8048 70.6944 22.0525 76.8139C28.3001 82.9333 36.7171 86.3634 45.4859 86.3634C54.2546 86.3634 62.6716 82.9333 68.9193 76.8139C75.167 70.6944 78.7441 62.3766 78.8782 53.6565C78.8933 52.9144 78.8646 52.1721 78.7922 51.4333C78.2007 59.8181 74.4342 67.6679 68.2523 73.3993C62.0704 79.1307 53.9332 82.3173 45.482 82.3164Z" fill="#9F101B"/>
<path d="M57.33 72.0516H65.9287V65.1309H70.9307V57.2771H65.9287V42.627H60.1406L57.33 47.5259V57.2771H47.8024L60.3868 33.8867H50.8592L37.5364 59.0189V65.1309H57.33V72.0516Z" fill="#9F101B"/>
<path d="M32.7662 33.8867H29.323L24.8152 42.9147V72.0516H32.7662V33.8867Z" fill="#9F101B"/>
<path d="M81.9573 29.1162H73.586C78.3311 34.6521 81.3923 41.4367 82.4064 48.6648C83.4204 55.8929 82.3447 63.261 79.3068 69.8944C76.269 76.5278 71.3966 82.1481 65.268 86.0881C59.1394 90.0281 52.0119 92.1224 44.7316 92.1224C37.4513 92.1224 30.3238 90.0281 24.1952 86.0881C18.0666 82.1481 13.1942 76.5278 10.1564 69.8944C7.11851 63.261 6.04276 55.8929 7.0568 48.6648C8.07084 41.4367 11.1321 34.6521 15.8772 29.1162H7.4278C3.35806 35.7605 1.12921 43.3727 0.970969 51.1683C0.812733 58.9639 2.73084 66.6607 6.52759 73.4655C10.3243 80.2703 15.8624 85.9369 22.5709 89.8812C29.2794 93.8255 36.9156 95.9048 44.6925 95.9048C52.4695 95.9048 60.1057 93.8255 66.8142 89.8812C73.5227 85.9369 79.0607 80.2703 82.8575 73.4655C86.6542 66.6607 88.5723 58.9639 88.4141 51.1683C88.2559 43.3727 86.027 35.7605 81.9573 29.1162Z" fill="#FFB420"/>
<path d="M8.13652 0.492432H24.8152V24.3455H8.13652C7.07726 24.3455 6.06139 23.9314 5.31238 23.1942C4.56337 22.457 4.14258 21.4571 4.14258 20.4145V4.42339C4.14258 3.38084 4.56337 2.38098 5.31238 1.64378C6.06139 0.906585 7.07726 0.492432 8.13652 0.492432Z" fill="#C32022"/>
<path d="M45.4878 0.492432H24.8152V24.3455H45.4878V0.492432Z" fill="#F36E22"/>
<path d="M66.1602 0.492432H45.4875V24.3455H66.1602V0.492432Z" fill="#FFB420"/>
<path d="M64.5701 0.492432H81.2488C82.308 0.492432 83.3239 0.906722 84.0729 1.64416C84.8219 2.3816 85.2427 3.38179 85.2427 4.42469V20.4132C85.2427 21.4561 84.8219 22.4563 84.0729 23.1938C83.3239 23.9312 82.308 24.3455 81.2488 24.3455H64.5701V0.492432Z" fill="#FFD65C"/>
<path d="M18.6361 21.1652L13.8365 14.8934H12.5416V21.1652H8.91284V5.27128H12.5416V11.4541H13.8753L18.2329 5.26318H22.389V5.684L16.8217 13.0159L22.389 20.1294V21.1652H18.6361ZM40.9051 21.1652H29.2743V5.27128H40.9051V8.68637H32.8721V11.4541H40.4166V14.8611H32.8721V17.7744H40.9051V21.1652ZM62.1893 21.1652H58.6768L51.6983 11.4541V21.1652H48.1083V5.27128H51.5743L58.5527 14.9824V5.27128H62.1272V21.1652H62.1893ZM82.0623 21.1652H78.4102V14.9339H72.0133V21.1652H68.3845V5.27128H72.0133V11.3812H78.4102V5.27128H82.039L82.0623 21.1652Z" fill="white"/>
<path d="M33.3857 72.0516H24.8152V42.9444L29.6787 33.8867H33.3857V72.0516ZM70.9074 65.138H65.9171V72.0516H57.3387V65.138H37.5917V59.0322L50.8673 33.9256H60.3725L47.8573 57.2921H57.3625V47.5509L60.1665 42.657H65.9409V57.2921H70.9311L70.9074 65.138Z" fill="white"/>
<path d="M114.799 40.2633L121.653 31.4962H129.707L120.086 43.0924L129.768 56.1498H121.715L114.706 46.1702H112.493V56.1498H105.915V24.3457H112.493V40.2633H114.799Z" fill="white"/>
<path d="M153.622 43.4434C153.622 44.2052 153.561 45.0888 153.5 45.6373H136.445C137.143 49.1415 139.571 50.6346 142.636 50.6346C144.73 50.6346 146.976 49.7814 148.705 48.3188L152.499 52.4933C149.767 55.0224 146.278 56.1498 142.241 56.1498C134.867 56.1498 129.769 51.1221 129.769 43.5044C129.769 35.8866 134.746 30.7065 141.938 30.7065C148.857 30.737 153.591 35.9171 153.622 43.4434ZM136.475 41.1886H147.127C146.52 38.111 144.669 36.3437 141.877 36.3437C138.842 36.3437 137.052 38.2024 136.475 41.1886Z" fill="white"/>
<path d="M179.065 40.3844V56.1498H172.721V42.5384C172.721 38.9483 171.031 36.9815 168.126 36.9815C165.399 36.9815 163.146 38.8546 163.146 42.5697V56.1186H156.802V31.3934H162.968V34.2967C164.628 31.6743 167.207 30.7065 169.875 30.7065C175.27 30.7378 179.065 34.6401 179.065 40.3844Z" fill="white"/>
<path d="M196.968 30.8433C202.304 30.8433 206.099 34.7294 206.099 40.4498V56.1498H199.755V42.595C199.755 39.0197 198.065 37.0611 195.16 37.0611C192.433 37.0611 190.18 38.9265 190.18 42.6261V56.1187H183.836V24.3457H190.18V34.1698C191.899 31.7138 194.389 30.8433 196.968 30.8433Z" fill="white"/>
<path d="M214.467 24.3457L210.869 31.6946V56.1498H217.23V24.3766L214.467 24.3457Z" fill="white"/>
<path d="M243.618 31.4236H239.2L237.065 35.4107V43.2922H229.859L239.407 24.3457H232.142L222 44.7139V49.6901H237.065V56.1498H243.618V49.6901H247.444V43.2922H243.618V31.4236Z" fill="white"/>
</svg>
